# xmcd
#
# Track frame offsets:
#	150
#	18280
#	42334
#	63218
#	81814
#	109847
#	127834
#	143963
#	162951
#	180325
#	197589
#	220529
#	237256
#	259663
#	277283
#	292729
#	312036
#	327591
#
# Disc length: 4626 seconds
#
# Revision: 0
# Processed by: cddbd v1.5.2PL0 Copyright (c) Steve Scherf et al.
# Submitted via: EasyCDDAExtractor 11.0.3.1
#
DISCID=f8121012
DTITLE=Various Artist - Country Hits, Vol. 06
DYEAR=2008
DGENRE=Country
TTITLE0=10 City Run - City Of Angels (Dumb Ol' Country Boy
TTITLE1=Chute Nine - Do You Still Do It
TTITLE2=Reba McEntire - Does The Wind Still Blow In Oklahoma? (With Ronnie Dun
TTITLE2=n)
TTITLE3=Chute Nine - Mexican Dog
TTITLE4=Deana Carter - The Boxer
TTITLE5=Jackson Taylor - Miles
TTITLE6=10 City Run - Stay All Night
TTITLE7=Chute Nine - Hound Dog
TTITLE8=Shawn Council - In Too Deep
TTITLE9=Jackson Taylor - Goodbye Morphine
TTITLE10=Deana Carter - Lay Lady Lay
TTITLE11=10 City Run - Carmellita
TTITLE12=Chute Nine - Chicks
TTITLE13=Shawn Council - Like You Love Me
TTITLE14=Jackson Taylor - Lonely
TTITLE15=Deana Carter - Good Hearted Woman
TTITLE16=Shawn Council - Die Hard Fan
TTITLE17=10 City Run - Memories
EXTD=
EXTT0=
EXTT1=
EXTT2=
EXTT3=
EXTT4=
EXTT5=
EXTT6=
EXTT7=
EXTT8=
EXTT9=
EXTT10=
EXTT11=
EXTT12=
EXTT13=
EXTT14=
EXTT15=
EXTT16=
EXTT17=
PLAYORDER=
